<svg xmlns="http://www.w3.org/2000/svg" viewBox="0 0 680 680">
  <rect x="40" y="40" width="600" height="600" rx="120" ry="120" fill="#1a1c22"/>
  <g opacity="0.04" stroke="#fff" stroke-width="1">
    <line x1="40" y1="100" x2="640" y2="100"/><line x1="40" y1="150" x2="640" y2="150"/>
    <line x1="40" y1="200" x2="640" y2="200"/><line x1="40" y1="250" x2="640" y2="250"/>
    <line x1="40" y1="300" x2="640" y2="300"/><line x1="40" y1="350" x2="640" y2="350"/>
    <line x1="40" y1="400" x2="640" y2="400"/><line x1="40" y1="450" x2="640" y2="450"/>
    <line x1="40" y1="500" x2="640" y2="500"/>
  </g>
  <g transform="translate(340,270)">
    <polygon points="0,-130 -26,-48 0,-66 26,-48" fill="#c8cdd8"/>
    <polygon points="0,130 -20,52 0,68 20,52" fill="#8a9099"/>
    <polygon points="-125,0 -48,-22 -65,0 -48,22" fill="#8a9099"/>
    <polygon points="125,0 48,-26 65,0 48,26" fill="#c8cdd8"/>
    <polygon points="-88,-88 -26,-46 -46,-26" fill="#4a5060"/>
    <polygon points="88,-88 26,-46 46,-26" fill="#4a5060"/>
    <polygon points="-88,88 -26,46 -46,26" fill="#2e3140"/>
    <polygon points="88,88 26,46 46,26" fill="#2e3140"/>
    <polygon points="0,-50 -36,0 0,50 36,0" fill="#8a9099"/>
    <polygon points="0,-50 0,50 36,0" fill="#c8cdd8" opacity="0.6"/>
    <g transform="translate(0,-16)">
      <rect x="-72" y="-9" width="144" height="18" rx="3" fill="#c8cdd8" opacity="0.92"/>
      <polygon points="0,-36 -32,-13 0,0 32,-13" fill="#c8cdd8"/>
      <polygon points="0,-36 32,-13 0,0" fill="#8a9099"/>
    </g>
    <g transform="translate(18,28)" opacity="0.95">
      <rect x="0" y="0" width="68" height="50" rx="3" fill="#2e3140" transform="rotate(-8)"/>
      <rect x="0" y="0" width="68" height="50" rx="3" fill="#4a5060" transform="rotate(-3)"/>
      <rect x="0" y="0" width="68" height="50" rx="3" fill="#8a9099"/>
      <line x1="8" y1="14" x2="56" y2="14" stroke="#1a1c22" stroke-width="2.5" opacity="0.5"/>
      <line x1="8" y1="24" x2="56" y2="24" stroke="#1a1c22" stroke-width="2.5" opacity="0.5"/>
      <line x1="8" y1="34" x2="48" y2="34" stroke="#1a1c22" stroke-width="2.5" opacity="0.5"/>
    </g>
    <g transform="translate(60,86)">
      <polyline points="-8,0 0,10 18,-12" fill="none" stroke="#c8cdd8" stroke-width="5.5" stroke-linecap="round" stroke-linejoin="round"/>
      <line x1="-50" y1="18" x2="28" y2="18" stroke="#c8cdd8" stroke-width="3" opacity="0.4"/>
    </g>
  </g>
  <line x1="150" y1="490" x2="530" y2="490" stroke="#c8cdd8" stroke-width="1.5" opacity="0.25"/>
  <text x="340" y="543" font-family="'DM Sans',Arial,sans-serif" font-weight="700" font-size="48" fill="#c8cdd8" letter-spacing="5" text-anchor="middle">SEMESTER</text>
  <text x="340" y="600" font-family="'DM Sans',Arial,sans-serif" font-weight="700" font-size="48" fill="#c8cdd8" letter-spacing="5" text-anchor="middle">SURVIVAL</text>
</svg>
